<?xml version="1.0" encoding="UTF-8" standalone="no"?>
<!-- Created using Krita: https://krita.org -->

<svg
   width="24"
   height="24"
   viewBox="0 0 17.999999 18"
   version="1.1"
   id="svg18"
   sodipodi:docname="checkbox-checked.svg"
   inkscape:version="1.1.1 (c3084ef, 2021-09-22)"
   xmlns:inkscape="http://www.inkscape.org/namespaces/inkscape"
   xmlns:sodipodi="http://sodipodi.sourceforge.net/DTD/sodipodi-0.dtd"
   xmlns="http://www.w3.org/2000/svg"
   xmlns:svg="http://www.w3.org/2000/svg">
  <sodipodi:namedview
     id="namedview20"
     pagecolor="#ffffff"
     bordercolor="#666666"
     borderopacity="1.0"
     showgrid="false"
     width="26pt"
     units="px"
   />
  <defs
     id="defs14">
    <linearGradient
       id="gradient0"
       gradientUnits="objectBoundingBox"
       x1="0.1903552"
       y1="0.32548967"
       x2="0.78203529"
       y2="0.94376153"
       spreadMethod="pad">
      <stop
         stop-color="#4ac115"
         offset="0.270142167806625"
         stop-opacity="1"
         id="stop9" />
      <stop
         stop-color="#005100"
         offset="0.890995264053345"
         stop-opacity="1"
         id="stop11" />
    </linearGradient>
  </defs>
  <path
     id="shape0"
     transform="matrix(0.49999996,0,0,0.49999996,1.6113601,2.7599998)"
     fill="#7f7d76"
     stroke="#000000"
     stroke-opacity="0"
     stroke-width="0"
     stroke-linecap="square"
     stroke-linejoin="bevel"
     d="M 1.65697,4.91102 C 2.73099,3.11583 3.268,2.21824 3.268,2.21824 3.26777,2.22323 3.26764,2.22708 3.26761,2.22977 3.2479,3.89679 3.20785,5.32556 3.21156,6.99269 c 0.0034,1.52673 -0.10175,2.84445 0.07635,4.36151 0.27453,2.3382 0.84923,4.2939 1.21304,6.6208 0.25305,1.6184 0.3707,3.0187 0.5486,4.6465 0.04037,0.3693 0.04455,0.6884 0.07493,1.0587 0.00993,0.1209 0.0263,0.2239 0.04022,0.3445 0.01276,0.1104 0.02227,0.2052 0.036,0.3156 0.00873,0.0701 0.01946,0.1298 0.02819,0.1999 9.2e-4,0.0074 0.00114,0.018 6.7e-4,0.0318 L 2.01004,29.9534 C 1.91077,27.6724 1.84013,25.9176 1.79811,24.689 1.77322,23.9613 1.75407,23.3371 1.75887,22.609 1.7785,19.6283 1.64046,17.0659 1.86789,14.0933 1.96258,12.8557 2.29578,11.82 2.67503,10.6341 3.02523,9.53908 3.46391,8.64557 3.94521,7.5979 4.02837,7.41687 4.1809,7.17531 4.40278,6.87319 L 7.60513,1.52057 C 7.87022,1.24751 8.0932,1.06452 8.27406,0.971611 8.71938,0.742847 9.1308,0.586808 9.62382,0.483566 10.6063,0.277827 11.4631,0.13237 12.4676,0.0934396 c 2.9142,-0.1129404 5.4174,-0.118714 8.3329,-0.0430277 1.4087,0.0365689 2.6197,0.1333511 4.0086,0.3634121 0.5761,0.095426 1.0529,0.289673 1.5659,0.559991 0.667,0.351415 1.2242,0.700195 1.7782,1.202075 0.4147,0.37567 0.7131,0.77289 0.9519,1.27105 0.3597,0.7504 0.5938,1.43747 0.7371,2.25261 0.165,0.93755 0.22,1.76632 0.1365,2.71386 -0.2548,2.88989 -0.717,5.34169 -1.1003,8.21829 -0.0657,0.4939 -0.1364,0.9157 -0.1826,1.4116 -0.1847,1.9821 -0.3038,3.6843 -0.4771,5.6673 -0.0128,0.1465 -0.0267,0.2722 -0.0546,0.4166 -0.022,0.1142 -0.0347,0.2165 -0.0877,0.3208 -0.0281,0.0554 -0.0873,0.1227 -0.1776,0.2017 l -3.216,5.3754 c -0.0529,0.0475 -0.0972,0.077 -0.133,0.0885 -0.1453,0.0467 -0.2743,0.0822 -0.4271,0.0914 -1.6855,0.1015 -3.1308,0.2155 -4.8196,0.2245 -1.2898,0.0069 -2.3923,-0.1192 -3.6807,-0.1791 -0.4146,-0.0193 -0.7699,-0.0514 -1.1849,-0.0471 -3.7311,0.0388 -6.92882,0.0994 -10.65938,0.1702 -0.36058,0.0069 -0.66893,0.0326 -1.02904,0.0517 -0.24301,0.0129 -0.45097,0.0301 -0.69414,0.0397 -0.10128,0.004 -0.25345,0.0906 -0.28962,-8e-4 -0.02283,-0.0577 0.06681,-0.0749 0.2689,-0.0516 l 3.2078,-5.3617 c 2.62503,-0.1013 4.64421,-0.1808 6.05758,-0.2386 0.4645,-0.019 0.8623,-0.0415 1.3266,-0.0634 1.695,-0.08 3.148,-0.1432 4.8427,-0.2277 0.8283,-0.0412 1.5381,-0.0815 2.3659,-0.1316 0.6486,-0.0392 1.2039,-0.0818 1.8523,-0.1236 0.4761,-0.0308 0.8841,-0.0572 1.3605,-0.0838 0.4938,-0.0274 0.9169,-0.0544 1.4112,-0.0706 1.349,-0.044 2.5061,-0.0552 3.8551,-0.1014 0.0965,-0.0033 0.2337,-0.0182 0.4115,-0.0446 l -3.2088,5.3633 c -0.1758,0.0219 -0.3114,0.034 -0.4066,0.0366 -1.344,0.0359 -2.4966,0.0392 -3.8404,0.0768 -0.4944,0.0139 -0.9175,0.0423 -1.4111,0.0705 -0.4774,0.0273 -0.886,0.0586 -1.3633,0.0882 -0.6455,0.0401 -1.1987,0.0758 -1.8445,0.1109 -0.8249,0.0448 -1.5323,0.0778 -2.3574,0.1173 -1.6947,0.081 -3.1476,0.1462 -4.8423,0.227 -0.46515,0.0221 -0.86366,0.0446 -1.3288,0.067 -1.42049,0.0682 -3.44982,0.1647 -6.08798,0.2894 l 3.2078,-5.3617 c -0.18628,-0.0331 -0.27311,-0.0206 -0.26048,0.0375 0.01984,0.0911 0.17787,0.0256 0.27436,0.0263 0.2389,0.0016 0.44349,-0.0127 0.68228,-0.0199 0.35593,-0.0107 0.66087,-0.0251 1.01691,-0.0314 3.73171,-0.066 6.93021,-0.1345 10.66231,-0.1751 0.4152,-0.0045 0.7707,0.0272 1.1855,0.0461 1.289,0.0588 2.3922,0.1898 3.6826,0.176 1.6983,-0.0181 3.1509,-0.1474 4.8449,-0.2668 0.1567,-0.0111 0.2873,-0.055 0.4355,-0.1055 0.0355,-0.0121 0.0798,-0.0415 0.1329,-0.0883 l -3.216,5.3754 c 0.0907,-0.0798 0.1503,-0.1477 0.1787,-0.2036 0.0537,-0.1055 0.0674,-0.2089 0.09,-0.3244 0.0283,-0.1449 0.0417,-0.271 0.0553,-0.4179 0.1868,-2.0066 0.3196,-3.7289 0.5173,-5.7345 0.0492,-0.4989 0.1216,-0.9233 0.1879,-1.4203 0.3836,-2.8751 0.8454,-5.3256 1.0977,-8.2141 0.0824,-0.9432 0.0231,-1.7681 -0.1444,-2.7006 C 26.5195,10.1978 26.2831,9.51402 25.922,8.76728 25.6818,8.27037 25.3824,7.87489 24.9682,7.49952 24.4142,6.99745 23.8589,6.64588 23.1924,6.29356 22.6797,6.0226 22.202,5.8323 21.6266,5.73327 20.2448,5.49547 19.0404,5.37385 17.6374,5.33755 14.7148,5.26193 12.2052,5.28727 9.2845,5.41394 8.2751,5.45772 7.41511,5.61119 6.42896,5.82367 5.93358,5.93041 5.52072,6.08961 5.07349,6.32127 4.89227,6.41513 4.6687,6.59911 4.40278,6.87319 L 7.60513,1.52057 C 7.38058,1.82699 7.22606,2.0719 7.14155,2.2553 6.65443,3.3125 6.20986,4.21384 5.85495,5.31898 5.4738,6.50581 5.14325,7.5431 5.04552,8.78203 4.80965,11.7721 4.93443,14.3501 4.90602,17.3486 c -0.0069,0.7285 0.00601,1.3533 0.03861,2.0811 0.05377,1.2005 0.14874,2.9146 0.28493,5.1423 L 2.01004,29.9534 C 2.01284,29.9368 2.01386,29.9241 2.01312,29.9152 2.00704,29.8424 1.99752,29.7803 1.98954,29.7076 1.97729,29.5962 1.96777,29.5005 1.95532,29.3891 1.94183,29.2683 1.92448,29.1652 1.91543,29.044 1.88738,28.6686 1.88795,28.3451 1.84934,27.9705 1.68024,26.3302 1.57441,24.9187 1.32208,23.2883 0.962432,20.9646 0.377304,19.014 0.101806,16.6796 -0.0773286,15.1618 0.036433,13.8431 0.0270865,12.3154 0.0170192,10.67 0.0397545,9.25952 0.0463413,7.61402 0.0463508,7.61163 0.0462193,7.60823 0.0459467,7.6038 v 0 c -1e-7,0 0.5370093,-0.89759 1.6110233,-2.69278 z" />
  <path
     id="shape1"
     transform="matrix(0.49999996,0,0,0.49999996,1.4352852,2.255066)"
     fill="url(#gradient0)"
     stroke="#000000"
     stroke-opacity="0"
     stroke-width="0"
     stroke-linecap="square"
     stroke-linejoin="bevel"
     d="M 4.16974,15.5632 C 6.94956,14.606 8.33947,14.1274 8.33947,14.1274 L 0,16.9989 8.33947,14.1274 c 0.1713,0.0108 0.30033,0.0305 0.38709,0.0592 0.31685,0.1047 0.58883,0.2022 0.8827,0.3603 0.52974,0.285 0.96294,0.5676 1.46324,0.9018 0.177,0.1182 0.313,0.2426 0.4683,0.3883 0.5827,0.5469 1.083,1.0155 1.6391,1.5895 0.1881,0.1941 0.3152,0.3906 0.4838,0.6018 0.2554,0.3198 0.4834,0.5869 0.7274,0.9155 0.1659,0.2234 0.2905,0.4273 0.4428,0.6601 0.148,0.2262 0.276,0.4195 0.4154,0.6511 0.1309,0.2175 0.2427,0.4047 0.3565,0.6317 0.329,0.6561 0.6579,1.2002 0.908,1.8903 0.3349,0.9241 0.4934,1.7574 0.7572,2.7042 0.0768,0.2758 0.1366,0.5139 0.2161,0.789 0.0229,0.0793 0.0506,0.1448 0.0765,0.2233 0.0012,0.0035 0.0019,0.0088 0.0023,0.0157 L 9.2293,29.3797 C 9.22472,29.3754 9.22242,29.3717 9.22241,29.3686 9.21697,28.3944 9.20238,27.5592 9.21369,26.585 9.21738,26.267 9.22654,25.9935 9.26524,25.6778 9.37512,24.7815 9.43632,24.0049 9.63788,23.1247 9.9628,21.7056 10.2541,20.484 10.7665,19.1214 c 0.5317,-1.4141 1.1657,-2.5529 1.8443,-3.9029 0.2342,-0.4659 0.4851,-0.8384 0.7612,-1.2807 0.2731,-0.4375 0.49,-0.8261 0.8076,-1.2325 C 15.3711,11.181 16.3137,9.79682 17.6797,8.42664 19.4001,6.701 21.085,5.44529 22.9641,3.89401 23.2975,3.61879 23.8004,3.26035 24.4728,2.81867 L 32.6589,0 c -0.6848,0.444213 -1.1965,0.805672 -1.535,1.08438 -1.8831,1.55015 -3.5726,2.80421 -5.2912,4.53495 -1.3499,1.35948 -2.2676,2.7426 -3.4398,4.25795 -0.3155,0.40782 -0.5342,0.79492 -0.8072,1.23232 -0.2764,0.4425 -0.5302,0.8137 -0.7622,1.2811 -0.6671,1.344 -1.2824,2.482 -1.8039,3.889 -0.5054,1.3633 -0.7975,2.5827 -1.1204,4.0003 -0.2005,0.8805 -0.2627,1.6568 -0.3724,2.5531 -0.0385,0.3156 -0.0535,0.589 -0.0507,0.9069 0.0087,0.9657 0.0523,1.7927 0.0836,2.7579 10e-5,0.003 0.0021,0.0068 0.0062,0.0113 L 9.2293,29.3797 C 9.23267,29.372 9.23388,29.3661 9.2329,29.362 9.21386,29.2814 9.19227,29.2136 9.17114,29.1336 9.09806,28.8565 9.03757,28.6185 8.96375,28.3416 8.71033,27.3913 8.56543,26.5541 8.23616,25.6272 7.99044,24.9356 7.65626,24.3934 7.32787,23.737 7.21436,23.5101 7.10396,23.3223 6.97405,23.1043 6.8358,22.8724 6.70933,22.6784 6.56195,22.4522 6.4101,22.2191 6.28517,22.0153 6.11917,21.7921 5.87489,21.4635 5.64722,21.196 5.39067,20.8769 5.22085,20.6657 5.09047,20.4709 4.901,20.2772 4.34117,19.7047 3.83823,19.2369 3.2527,18.6908 3.09693,18.5455 2.96136,18.4206 2.78397,18.3026 2.28191,17.9689 1.84799,17.6849 1.31521,17.4028 1.01608,17.2444 0.738976,17.1477 0.415406,17.0484 0.322094,17.0197 0.183625,17.0032 0,16.9989 L 8.33947,14.1274 0,16.9989 v 0 c -4.44225e-8,0 1.38991,-0.4785 4.16974,-1.4357 z" />
</svg>
